<svg width="40" height="40" viewBox="0 0 40 40" fill="none" xmlns="http://www.w3.org/2000/svg">
<rect width="40" height="40" rx="20" fill="#0066CC"/>
<path d="M15.4692 10.9578C14.9989 11.1688 14.5521 11.4286 14.136 11.7329C17.3731 10.2562 21.3256 10.3525 23.4463 11.3214C24.1133 11.6385 24.5614 11.8311 24.7645 12.2098C22.5632 11.6058 21.6178 11.4964 19.7755 11.5429C17.1549 11.5914 13.6695 12.6534 12.337 13.4651L11.7513 14.2119C13.6695 13.0497 17.2493 12.2904 19.2337 12.2262C21.4494 12.1954 23.1679 12.4018 24.7494 12.9888C24.6551 13.4009 24.4539 13.6072 24.1133 13.8149C17.7917 12.6868 14.0567 14.0193 10.6801 16.2737L10.4331 17.0193C14.1982 14.3698 18.8138 13.6407 23.2616 14.4334C21.6663 15.0053 19.7605 15.1318 18.1645 15.5105C16.8018 15.8289 16.0733 15.9252 14.2585 16.5456C12.4176 17.1647 11.33 17.7989 10.65 18.6093C10.3244 18.9919 10.0761 19.4348 10.0132 19.9098C9.98433 20.1941 9.9994 20.4509 10.0931 20.7051C10.1678 20.9279 10.3388 21.1493 10.5255 21.3714C10.3093 21.7514 10.1213 22.246 10.4331 22.8173C10.572 23.0859 10.9284 23.3559 11.271 23.612L11.1747 23.895C11.1289 24.2305 11.083 24.6262 11.3005 24.959C11.6707 25.5624 12.1201 25.9607 12.8336 26.3414C12.9423 26.834 13.1114 27.2298 13.4835 27.5809C14.2736 28.3258 16.0412 29.7547 19.1852 29.9774C21.5412 30.1373 23.2295 29.4062 23.8656 29.0878L24.64 28.6763C23.3232 29.2148 21.1088 29.5326 19.294 29.3741C16.6603 29.1513 14.307 27.3896 14.0122 26.8812C14.1039 26.9435 14.2284 26.9919 14.3352 27.0398C17.4196 28.5636 21.401 29.3904 26.4987 27.2625L26.9193 26.8498C22.2841 28.3258 18.2268 28.2786 13.8713 25.9457C13.9192 25.7229 14.0122 25.5296 14.212 25.3744C15.3264 25.8788 16.3969 26.2949 17.6987 26.5628C19.2173 26.8498 20.9515 26.914 22.3784 26.8498C23.8198 26.7862 26.6697 26.0557 28.018 25.3259C28.1411 25.2145 28.2027 25.0258 28.3265 24.8974C25.6948 25.8788 22.5632 26.3414 20.6744 26.1972C18.8301 26.0557 17.189 25.8323 15.0192 24.8168C15.4365 24.6432 15.8708 24.4997 16.3039 24.3713C17.7295 24.8168 19.1852 25.0854 20.905 25.166C22.611 25.2446 26.5917 24.5961 29.1009 23.0407C29.1802 22.818 29.2568 22.5782 29.2568 22.5782C29.2568 22.5782 25.7708 24.4847 21.8209 24.4847C19.9767 24.4847 18.8459 24.2141 18.0099 24.0077C19.8679 23.6585 22.2081 23.3722 24.8405 22.6902C26.1724 22.3397 27.8155 21.545 28.5598 20.8794C29.1946 20.2904 29.6912 19.5285 29.5215 18.7534C29.4881 18.5444 29.2103 18.055 28.869 17.8788C29.1946 17.4503 29.1638 17.0848 29.1186 16.7696C29.0858 16.5272 28.9777 16.2599 28.8402 16.0228C28.6227 15.7339 28.4196 15.5105 28.0009 15.2582C28.0652 14.9252 28.0218 14.5803 27.8771 14.2735C27.5521 13.7022 26.9645 13.2109 25.9575 12.6868C25.911 12.4797 25.7852 12.2098 25.5703 11.9405C24.3006 10.6545 22.2232 10.0354 20.472 10.0026C20.3737 10.0007 20.2761 10 20.1804 10C18.1318 10 16.4873 10.4717 15.4692 10.9578ZM25.3843 14.1327C25.5402 13.9578 25.7708 13.6878 25.8317 13.4651C26.2674 13.7514 26.7627 14.1798 26.8236 14.6247C26.3604 14.4478 25.8645 14.2604 25.3843 14.1333V14.1327ZM25.7708 16.0686C25.0285 15.861 24.3779 15.6068 23.5079 15.4502C24.0366 15.2418 24.391 15.0211 24.7029 14.7662C25.3974 14.9555 26.0486 15.1953 26.5786 15.4325C26.4869 15.5707 25.9562 16.0739 25.795 16.0739C25.7866 16.0743 25.7783 16.0725 25.7708 16.0686ZM27.1191 16.6242C27.3196 16.465 27.5063 16.292 27.6773 16.0844C28.0946 16.4493 28.2184 16.7035 28.018 17.1005C27.7402 16.8948 27.4434 16.7828 27.1191 16.6242ZM11.2088 20.5623C10.0603 18.9428 14.0417 17.7845 14.8023 17.5453C16.7383 16.9557 19.0018 16.5141 21.0472 16.2599C22.4538 16.0844 23.2 16.2449 24.5332 16.6091C21.1088 17.546 17.7295 17.8454 14.5068 18.815C11.9085 19.5881 11.2193 20.5623 11.2088 20.5623ZM12.0585 21.3393C13.2673 20.2904 15.732 19.7041 16.6315 19.4977C19.4964 18.8622 22.1616 18.4658 23.2616 18.1808C24.5948 17.8454 25.5245 17.5296 26.1724 17.2125C26.2038 17.1647 27.2573 17.6875 27.3661 17.8133C27.0103 18.1166 26.5164 18.3715 25.9726 18.5602C24.3458 19.1642 21.3865 19.7984 19.8227 20.0408C18.2418 20.3088 16.9224 20.5138 15.1744 20.9881C14.1655 21.26 13.4835 21.5778 12.9875 21.9119C12.6161 21.6892 12.3992 21.6263 12.0585 21.3393ZM14.307 22.6096C14.8167 22.3869 15.3749 22.212 15.9154 22.0718C18.6434 21.3852 21.0472 21.26 24.3622 20.3402C25.9575 19.9098 27.1191 19.4486 27.8483 18.8792C27.9557 18.7823 28.0645 18.7036 28.1732 18.6093C29.1337 20.1325 25.5245 21.3079 23.0591 21.8503C21.7704 22.1113 20.479 22.3594 19.1852 22.5946C17.5762 22.8645 17.0468 23.008 15.9318 23.3414C15.3749 23.1187 14.8167 22.8802 14.307 22.6096ZM11.4073 22.1333C11.6563 22.2939 11.841 22.4216 12.1365 22.5782C12.0277 22.6732 11.8875 22.7695 11.7801 22.8796C11.5338 22.7354 11.2835 22.421 11.4073 22.1327V22.1333ZM12.6947 23.5943C12.85 23.4515 13.0504 23.3093 13.2673 23.1672C13.7324 23.3899 14.212 23.5937 14.6614 23.8014C14.3589 23.9145 14.0686 24.0583 13.7953 24.2305C13.4253 24.0238 13.0583 23.8115 12.6947 23.5937V23.5943ZM12.2911 24.3713C12.5545 24.5469 12.8179 24.6891 13.0825 24.8332C12.9738 24.9924 12.8952 25.1175 12.85 25.2781C12.4621 24.9439 12.2747 24.674 12.2911 24.3713Z" fill="white"/>
</svg>
