<svg width="144" height="20" viewBox="0 0 144 20" fill="none" xmlns="http://www.w3.org/2000/svg">
<path d="M5.95927 0.407288C8.01715 0.407288 9.73205 1.12897 11.104 2.57235C12.4902 4.01572 13.1833 5.79493 13.1833 7.90997C13.1833 10.025 12.4902 11.8042 11.104 13.2476C9.73205 14.691 8.01715 15.4126 5.95927 15.4126H0V0.407288H5.95927ZM5.95927 12.5831C7.25974 12.5831 8.31726 12.1543 9.13183 11.2969C9.94641 10.4252 10.3537 9.29618 10.3537 7.90997C10.3537 6.52376 9.94641 5.40193 9.13183 4.54448C8.31726 3.67274 7.25974 3.23687 5.95927 3.23687H2.9582V12.5831H5.95927Z" fill="#6953F0"/>
<path d="M16.8465 11.1897C17.2181 12.533 18.2256 13.2047 19.869 13.2047C20.9266 13.2047 21.7268 12.8474 22.2699 12.1329L24.4993 13.4191C23.4417 14.9482 21.884 15.7128 19.8262 15.7128C18.0541 15.7128 16.6322 15.1768 15.5604 14.105C14.4885 13.0332 13.9526 11.6827 13.9526 10.0536C13.9526 8.43873 14.4814 7.09539 15.5389 6.02358C16.5964 4.93748 17.9541 4.39443 19.6118 4.39443C21.1838 4.39443 22.4771 4.93748 23.4918 6.02358C24.5207 7.10968 25.0352 8.45302 25.0352 10.0536C25.0352 10.4109 24.9994 10.7896 24.928 11.1897H16.8465ZM16.8037 9.04609H22.2699C22.1127 8.31726 21.784 7.77421 21.2838 7.41693C20.7979 7.05966 20.2406 6.88103 19.6118 6.88103C18.8687 6.88103 18.2542 7.07396 17.7683 7.45981C17.2824 7.83137 16.9609 8.36013 16.8037 9.04609Z" fill="#6953F0"/>
<path d="M28.4547 7.73848C28.4547 8.02429 28.6405 8.26009 29.0121 8.44587C29.3979 8.61736 29.8624 8.77456 30.4054 8.91747C30.9485 9.04609 31.4915 9.21758 32.0346 9.43194C32.5777 9.63201 33.035 9.97499 33.4065 10.4609C33.7924 10.9468 33.9853 11.5541 33.9853 12.283C33.9853 13.3834 33.5709 14.2337 32.742 14.8339C31.9274 15.4198 30.9056 15.7128 29.6766 15.7128C27.4758 15.7128 25.9753 14.8625 25.175 13.1618L27.5759 11.8114C27.8903 12.7403 28.5905 13.2047 29.6766 13.2047C30.6627 13.2047 31.1557 12.8975 31.1557 12.283C31.1557 11.9971 30.9628 11.7685 30.5769 11.597C30.2054 11.4112 29.7481 11.2469 29.205 11.104C28.662 10.9611 28.1189 10.7824 27.5759 10.5681C27.0328 10.3537 26.5684 10.0179 26.1825 9.56056C25.8109 9.08896 25.6252 8.50304 25.6252 7.80279C25.6252 6.74527 26.011 5.9164 26.7827 5.31618C27.5687 4.70168 28.5405 4.39443 29.698 4.39443C30.5698 4.39443 31.3629 4.5945 32.0775 4.99464C32.792 5.38049 33.3565 5.93783 33.7709 6.66667L31.4129 7.95284C31.07 7.22401 30.4983 6.85959 29.698 6.85959C29.3408 6.85959 29.0407 6.93819 28.7977 7.09539C28.5691 7.25259 28.4547 7.46695 28.4547 7.73848Z" fill="#6953F0"/>
<path d="M36.4925 3.40836C36.0352 3.40836 35.635 3.24402 35.2921 2.91533C34.9634 2.57235 34.799 2.1722 34.799 1.7149C34.799 1.25759 34.9634 0.85745 35.2921 0.514469C35.635 0.17149 36.0352 0 36.4925 0C36.9641 0 37.3642 0.17149 37.6929 0.514469C38.0359 0.85745 38.2074 1.25759 38.2074 1.7149C38.2074 2.1722 38.0359 2.57235 37.6929 2.91533C37.3642 3.24402 36.9641 3.40836 36.4925 3.40836ZM35.1206 15.4126V4.69453H37.8858V15.4126H35.1206Z" fill="#6953F0"/>
<path d="M47.9838 4.69453H50.6848V14.8982C50.6848 16.5559 50.1346 17.8207 49.0342 18.6924C47.9481 19.5641 46.6333 20 45.0899 20C43.9324 20 42.9106 19.7785 42.0245 19.3355C41.1528 18.8925 40.4811 18.2422 40.0095 17.3848L42.3675 16.0343C42.9106 17.0347 43.8466 17.5348 45.1757 17.5348C46.0474 17.5348 46.7334 17.3062 47.2336 16.8489C47.7337 16.3916 47.9838 15.7413 47.9838 14.8982V13.7406C47.1692 14.8267 46.026 15.3698 44.554 15.3698C43.0392 15.3698 41.7673 14.841 40.7384 13.7835C39.7237 12.7117 39.2164 11.4112 39.2164 9.8821C39.2164 8.36727 39.7309 7.07396 40.7598 6.00214C41.7887 4.93033 43.0535 4.39443 44.554 4.39443C46.026 4.39443 47.1692 4.93748 47.9838 6.02358V4.69453ZM42.8177 12.0043C43.3893 12.5473 44.111 12.8189 44.9827 12.8189C45.8545 12.8189 46.569 12.5473 47.1264 12.0043C47.698 11.4469 47.9838 10.7395 47.9838 9.8821C47.9838 9.03894 47.698 8.34584 47.1264 7.80279C46.569 7.24545 45.8545 6.96677 44.9827 6.96677C44.111 6.96677 43.3893 7.24545 42.8177 7.80279C42.2603 8.34584 41.9817 9.03894 41.9817 9.8821C41.9817 10.7395 42.2603 11.4469 42.8177 12.0043Z" fill="#6953F0"/>
<path d="M58.5085 4.39443C59.6804 4.39443 60.645 4.78742 61.4024 5.57342C62.1741 6.35941 62.56 7.44552 62.56 8.83173V15.4126H59.7947V9.17471C59.7947 8.46016 59.6018 7.91711 59.2159 7.54555C58.83 7.1597 58.3156 6.96677 57.6725 6.96677C56.958 6.96677 56.3863 7.18828 55.9576 7.6313C55.5289 8.07431 55.3145 8.73884 55.3145 9.62487V15.4126H52.5492V4.69453H55.3145V5.89496C55.9862 4.89461 57.0508 4.39443 58.5085 4.39443Z" fill="#6953F0"/>
<path d="M71.5235 15.7128C69.2655 15.7128 67.4006 14.9625 65.9286 13.462C64.4567 11.9614 63.7207 10.1108 63.7207 7.90997C63.7207 5.69489 64.4567 3.84423 65.9286 2.35799C67.4006 0.857449 69.2655 0.107181 71.5235 0.107181C72.8811 0.107181 74.1316 0.428725 75.2748 1.07181C76.4324 1.70061 77.3327 2.55806 77.9758 3.64416L75.4249 5.12326C75.0533 4.45159 74.5246 3.92998 73.8386 3.55841C73.1526 3.17256 72.3809 2.97964 71.5235 2.97964C70.0658 2.97964 68.8868 3.43694 67.9865 4.35155C67.1005 5.26617 66.6575 6.4523 66.6575 7.90997C66.6575 9.35334 67.1005 10.5323 67.9865 11.4469C68.8868 12.3616 70.0658 12.8189 71.5235 12.8189C72.3809 12.8189 73.1526 12.6331 73.8386 12.2615C74.5388 11.8757 75.0676 11.3541 75.4249 10.6967L77.9758 12.1758C77.3327 13.2619 76.4395 14.1265 75.2963 14.7696C74.153 15.3984 72.8954 15.7128 71.5235 15.7128Z" fill="#6953F0"/>
<path d="M88.2159 14.0836C87.1155 15.1697 85.7722 15.7128 84.1859 15.7128C82.5996 15.7128 81.2563 15.1697 80.1559 14.0836C79.0698 12.9832 78.5268 11.6399 78.5268 10.0536C78.5268 8.46731 79.0698 7.13112 80.1559 6.04502C81.2563 4.94462 82.5996 4.39443 84.1859 4.39443C85.7722 4.39443 87.1155 4.94462 88.2159 6.04502C89.3163 7.13112 89.8665 8.46731 89.8665 10.0536C89.8665 11.6399 89.3163 12.9832 88.2159 14.0836ZM82.1066 12.1758C82.6639 12.7331 83.3571 13.0118 84.1859 13.0118C85.0148 13.0118 85.7079 12.7331 86.2652 12.1758C86.8226 11.6184 87.1012 10.911 87.1012 10.0536C87.1012 9.19614 86.8226 8.48875 86.2652 7.9314C85.7079 7.37406 85.0148 7.09539 84.1859 7.09539C83.3571 7.09539 82.6639 7.37406 82.1066 7.9314C81.5636 8.48875 81.292 9.19614 81.292 10.0536C81.292 10.911 81.5636 11.6184 82.1066 12.1758Z" fill="#6953F0"/>
<path d="M97.128 4.39443C98.2999 4.39443 99.2645 4.78742 100.022 5.57342C100.794 6.35941 101.179 7.44552 101.179 8.83173V15.4126H98.4142V9.17471C98.4142 8.46016 98.2213 7.91711 97.8354 7.54555C97.4496 7.1597 96.9351 6.96677 96.292 6.96677C95.5775 6.96677 95.0059 7.18828 94.5771 7.6313C94.1484 8.07431 93.934 8.73884 93.934 9.62487V15.4126H91.1688V4.69453H93.934V5.89496C94.6057 4.89461 95.6704 4.39443 97.128 4.39443Z" fill="#6953F0"/>
<path d="M107.688 7.35263H105.265V11.8114C105.265 12.1829 105.358 12.4544 105.544 12.6259C105.73 12.7974 106.001 12.8975 106.359 12.926C106.716 12.9403 107.159 12.9332 107.688 12.9046V15.4126C105.787 15.627 104.444 15.4484 103.658 14.8767C102.886 14.3051 102.5 13.2833 102.5 11.8114V2.52948L105.265 1.69346V4.69453H107.688V7.35263Z" fill="#6953F0"/>
<path d="M110.996 11.1897C111.367 12.533 112.375 13.2047 114.018 13.2047C115.076 13.2047 115.876 12.8474 116.419 12.1329L118.649 13.4191C117.591 14.9482 116.033 15.7128 113.975 15.7128C112.203 15.7128 110.781 15.1768 109.71 14.105C108.638 13.0332 108.102 11.6827 108.102 10.0536C108.102 8.43873 108.631 7.09539 109.688 6.02358C110.746 4.93748 112.103 4.39443 113.761 4.39443C115.333 4.39443 116.626 4.93748 117.641 6.02358C118.67 7.10968 119.184 8.45302 119.184 10.0536C119.184 10.4109 119.149 10.7896 119.077 11.1897H110.996ZM110.953 9.04609H116.419C116.262 8.31726 115.933 7.77421 115.433 7.41693C114.947 7.05966 114.39 6.88103 113.761 6.88103C113.018 6.88103 112.403 7.07396 111.918 7.45981C111.432 7.83137 111.11 8.36013 110.953 9.04609Z" fill="#6953F0"/>
<path d="M122.604 7.73848C122.604 8.02429 122.79 8.26009 123.161 8.44587C123.547 8.61736 124.012 8.77456 124.555 8.91747C125.098 9.04609 125.641 9.21758 126.184 9.43194C126.727 9.63201 127.184 9.97499 127.556 10.4609C127.942 10.9468 128.135 11.5541 128.135 12.283C128.135 13.3834 127.72 14.2337 126.891 14.8339C126.077 15.4198 125.055 15.7128 123.826 15.7128C121.625 15.7128 120.125 14.8625 119.324 13.1618L121.725 11.8114C122.04 12.7403 122.74 13.2047 123.826 13.2047C124.812 13.2047 125.305 12.8975 125.305 12.283C125.305 11.9971 125.112 11.7685 124.726 11.597C124.355 11.4112 123.897 11.2469 123.354 11.104C122.811 10.9611 122.268 10.7824 121.725 10.5681C121.182 10.3537 120.718 10.0179 120.332 9.56056C119.96 9.08896 119.774 8.50304 119.774 7.80279C119.774 6.74527 120.16 5.9164 120.932 5.31618C121.718 4.70168 122.69 4.39443 123.847 4.39443C124.719 4.39443 125.512 4.5945 126.227 4.99464C126.941 5.38049 127.506 5.93783 127.92 6.66667L125.562 7.95284C125.219 7.22401 124.648 6.85959 123.847 6.85959C123.49 6.85959 123.19 6.93819 122.947 7.09539C122.718 7.25259 122.604 7.46695 122.604 7.73848Z" fill="#6953F0"/>
<path d="M134.188 7.35263H131.765V11.8114C131.765 12.1829 131.858 12.4544 132.044 12.6259C132.23 12.7974 132.501 12.8975 132.859 12.926C133.216 12.9403 133.659 12.9332 134.188 12.9046V15.4126C132.287 15.627 130.944 15.4484 130.158 14.8767C129.386 14.3051 129 13.2833 129 11.8114V2.52948L131.765 1.69346V4.69453H134.188V7.35263Z" fill="#6953F0"/>
<path d="M137.815 7.73848C137.815 8.02429 138.001 8.26009 138.372 8.44587C138.758 8.61736 139.222 8.77456 139.766 8.91747C140.309 9.04609 140.852 9.21758 141.395 9.43194C141.938 9.63201 142.395 9.97499 142.767 10.4609C143.152 10.9468 143.345 11.5541 143.345 12.283C143.345 13.3834 142.931 14.2337 142.102 14.8339C141.287 15.4198 140.266 15.7128 139.037 15.7128C136.836 15.7128 135.335 14.8625 134.535 13.1618L136.936 11.8114C137.25 12.7403 137.951 13.2047 139.037 13.2047C140.023 13.2047 140.516 12.8975 140.516 12.283C140.516 11.9971 140.323 11.7685 139.937 11.597C139.565 11.4112 139.108 11.2469 138.565 11.104C138.022 10.9611 137.479 10.7824 136.936 10.5681C136.393 10.3537 135.928 10.0179 135.543 9.56056C135.171 9.08896 134.985 8.50304 134.985 7.80279C134.985 6.74527 135.371 5.9164 136.143 5.31618C136.929 4.70168 137.901 4.39443 139.058 4.39443C139.93 4.39443 140.723 4.5945 141.438 4.99464C142.152 5.38049 142.717 5.93783 143.131 6.66667L140.773 7.95284C140.43 7.22401 139.858 6.85959 139.058 6.85959C138.701 6.85959 138.401 6.93819 138.158 7.09539C137.929 7.25259 137.815 7.46695 137.815 7.73848Z" fill="#6953F0"/>
</svg>
