<svg width="40" height="40" viewBox="0 0 40 40" fill="none" xmlns="http://www.w3.org/2000/svg">
<rect width="40" height="40" rx="20" fill="#3F8AE0"/>
<path d="M28.4342 24.031C28.413 23.9853 28.3932 23.9474 28.3748 23.917C28.0707 23.3693 27.4896 22.697 26.6318 21.9L26.6137 21.8818L26.6046 21.8728L26.5954 21.8637H26.5862C26.1969 21.4925 25.9504 21.243 25.8471 21.1153C25.6582 20.8719 25.6159 20.6256 25.7192 20.376C25.7921 20.1874 26.0661 19.7891 26.5405 19.1806C26.79 18.8582 26.9876 18.5997 27.1336 18.405C28.1861 17.0057 28.6425 16.1115 28.5025 15.7221L28.4481 15.6311C28.4116 15.5763 28.3173 15.5262 28.1654 15.4805C28.0131 15.4348 27.8185 15.4273 27.5812 15.4577L24.953 15.4759C24.9105 15.4608 24.8497 15.4622 24.7705 15.4805C24.6914 15.4987 24.6518 15.5079 24.6518 15.5079L24.606 15.5308L24.5697 15.5582C24.5393 15.5764 24.5058 15.6083 24.4693 15.654C24.433 15.6994 24.4026 15.7528 24.3783 15.8136C24.0921 16.5498 23.7668 17.2342 23.4017 17.8669C23.1766 18.2441 22.9699 18.5711 22.7811 18.8479C22.5925 19.1246 22.4343 19.3285 22.3067 19.4592C22.1788 19.5901 22.0634 19.6949 21.9598 19.774C21.8563 19.8532 21.7774 19.8867 21.7227 19.8745C21.6679 19.8622 21.6162 19.8501 21.5674 19.8379C21.4823 19.7831 21.4138 19.7086 21.3622 19.6143C21.3103 19.5201 21.2754 19.4014 21.2572 19.2584C21.239 19.1153 21.2283 18.9923 21.2252 18.8888C21.2224 18.7855 21.2237 18.6393 21.2298 18.4507C21.2362 18.2621 21.239 18.1344 21.239 18.0675C21.239 17.8362 21.2435 17.5853 21.2526 17.3146C21.2618 17.0439 21.2692 16.8294 21.2755 16.6713C21.2817 16.5131 21.2845 16.3458 21.2845 16.1694C21.2845 15.9929 21.2738 15.8546 21.2526 15.7541C21.2316 15.6538 21.1994 15.5565 21.157 15.4621C21.1143 15.3678 21.0519 15.2948 20.9699 15.2431C20.8878 15.1914 20.7857 15.1503 20.6642 15.1198C20.3418 15.0468 19.9311 15.0074 19.4322 15.0012C18.3006 14.9891 17.5736 15.0622 17.2511 15.2203C17.1234 15.2872 17.0078 15.3785 16.9044 15.494C16.7949 15.6279 16.7796 15.701 16.8587 15.713C17.2237 15.7677 17.4822 15.8985 17.6343 16.1053L17.6891 16.2149C17.7318 16.294 17.7743 16.434 17.8169 16.6347C17.8595 16.8355 17.8869 17.0575 17.899 17.3007C17.9294 17.7449 17.9294 18.1252 17.899 18.4415C17.8686 18.7579 17.8398 19.0042 17.8123 19.1807C17.7849 19.3571 17.7438 19.5001 17.6891 19.6095C17.6343 19.7191 17.5978 19.786 17.5796 19.8103C17.5613 19.8346 17.5461 19.8499 17.534 19.8559C17.4549 19.8862 17.3727 19.9016 17.2876 19.9016C17.2023 19.9016 17.099 19.859 16.9773 19.7738C16.8557 19.6886 16.7295 19.5715 16.5986 19.4224C16.4678 19.2733 16.3203 19.065 16.156 18.7973C15.9918 18.5297 15.8214 18.2133 15.645 17.8483L15.499 17.5836C15.4077 17.4133 15.2831 17.1653 15.1249 16.8399C14.9666 16.5144 14.8267 16.1995 14.7051 15.8953C14.6565 15.7675 14.5835 15.6703 14.4861 15.6033L14.4405 15.5759C14.4101 15.5516 14.3613 15.5258 14.2945 15.4983C14.2275 15.4708 14.1576 15.4511 14.0846 15.439L11.5842 15.4572C11.3286 15.4572 11.1553 15.5151 11.064 15.6307L11.0275 15.6854C11.0092 15.7158 11 15.7645 11 15.8314C11 15.8984 11.0183 15.9805 11.0548 16.0778C11.4198 16.9357 11.8167 17.763 12.2456 18.56C12.6745 19.3569 13.0472 19.9989 13.3635 20.4853C13.6798 20.9721 14.0022 21.4315 14.3308 21.8633C14.6593 22.2953 14.8768 22.5721 14.9832 22.6937C15.0897 22.8156 15.1734 22.9067 15.2342 22.9675L15.4624 23.1865C15.6084 23.3325 15.8228 23.5074 16.1057 23.7112C16.3887 23.9151 16.702 24.1158 17.0457 24.3137C17.3895 24.5112 17.7895 24.6725 18.2458 24.7972C18.7021 24.922 19.1462 24.9721 19.5781 24.9479H20.6276C20.8404 24.9295 21.0017 24.8626 21.1113 24.7471L21.1476 24.7013C21.172 24.665 21.1949 24.6086 21.216 24.5327C21.2373 24.4567 21.2479 24.3729 21.2479 24.2818C21.2417 24.0202 21.2616 23.7845 21.3071 23.5746C21.3526 23.3648 21.4045 23.2066 21.4624 23.1001C21.5204 22.9936 21.5858 22.9038 21.6586 22.831C21.7315 22.7581 21.7835 22.7138 21.814 22.6986C21.8443 22.6833 21.8685 22.6729 21.8867 22.6667C22.0327 22.6181 22.2046 22.6652 22.4025 22.8083C22.6002 22.9512 22.7857 23.1278 22.9592 23.3376C23.1326 23.5476 23.3409 23.7832 23.5842 24.0447C23.8277 24.3064 24.0406 24.5009 24.223 24.6288L24.4055 24.7383C24.5273 24.8114 24.6855 24.8783 24.8802 24.9391C25.0746 24.9999 25.2449 25.0151 25.3911 24.9847L27.7272 24.9483C27.9582 24.9483 28.138 24.91 28.2655 24.8341C28.3933 24.7581 28.4692 24.6743 28.4937 24.5832C28.5181 24.492 28.5195 24.3885 28.4984 24.2728C28.4767 24.1574 28.4554 24.0766 28.4342 24.031Z" fill="white"/>
</svg>
